<svg xmlns="http://www.w3.org/2000/svg" width="800" height="600" viewBox="0 0 800 600">
  <!-- 深色背景 -->
  <rect width="800" height="600" fill="#000033"/>
  
  <!-- 星星 -->
  <g fill="#FFFFFF">
    <!-- 小星星 -->
    <g opacity="0.5">
      <circle cx="50" cy="50" r="1"/>
      <circle cx="150" cy="80" r="1"/>
      <circle cx="250" cy="30" r="1"/>
      <circle cx="350" cy="90" r="1"/>
      <circle cx="450" cy="40" r="1"/>
      <circle cx="550" cy="70" r="1"/>
      <circle cx="650" cy="20" r="1"/>
      <circle cx="750" cy="60" r="1"/>
      <circle cx="100" cy="120" r="1"/>
      <circle cx="200" cy="150" r="1"/>
      <circle cx="300" cy="180" r="1"/>
      <circle cx="400" cy="130" r="1"/>
      <circle cx="500" cy="160" r="1"/>
      <circle cx="600" cy="110" r="1"/>
      <circle cx="700" cy="140" r="1"/>
      <circle cx="75" cy="200" r="1"/>
      <circle cx="175" cy="230" r="1"/>
      <circle cx="275" cy="260" r="1"/>
      <circle cx="375" cy="210" r="1"/>
      <circle cx="475" cy="240" r="1"/>
      <circle cx="575" cy="270" r="1"/>
      <circle cx="675" cy="220" r="1"/>
      <circle cx="775" cy="250" r="1"/>
      <circle cx="125" cy="300" r="1"/>
      <circle cx="225" cy="330" r="1"/>
      <circle cx="325" cy="360" r="1"/>
      <circle cx="425" cy="310" r="1"/>
      <circle cx="525" cy="340" r="1"/>
      <circle cx="625" cy="370" r="1"/>
      <circle cx="725" cy="320" r="1"/>
      <circle cx="25" cy="350" r="1"/>
      <circle cx="125" cy="380" r="1"/>
      <circle cx="225" cy="410" r="1"/>
      <circle cx="325" cy="440" r="1"/>
      <circle cx="425" cy="390" r="1"/>
      <circle cx="525" cy="420" r="1"/>
      <circle cx="625" cy="450" r="1"/>
      <circle cx="725" cy="400" r="1"/>
      <circle cx="75" cy="430" r="1"/>
      <circle cx="175" cy="460" r="1"/>
      <circle cx="275" cy="490" r="1"/>
      <circle cx="375" cy="520" r="1"/>
      <circle cx="475" cy="470" r="1"/>
      <circle cx="575" cy="500" r="1"/>
      <circle cx="675" cy="530" r="1"/>
      <circle cx="775" cy="480" r="1"/>
      <circle cx="25" cy="510" r="1"/>
      <circle cx="125" cy="540" r="1"/>
      <circle cx="225" cy="570" r="1"/>
      <circle cx="325" cy="520" r="1"/>
      <circle cx="425" cy="550" r="1"/>
      <circle cx="525" cy="580" r="1"/>
      <circle cx="625" cy="530" r="1"/>
      <circle cx="725" cy="560" r="1"/>
    </g>
    
    <!-- 中星星 -->
    <g opacity="0.7">
      <circle cx="120" cy="45" r="1.5"/>
      <circle cx="220" cy="75" r="1.5"/>
      <circle cx="320" cy="25" r="1.5"/>
      <circle cx="420" cy="85" r="1.5"/>
      <circle cx="520" cy="35" r="1.5"/>
      <circle cx="620" cy="65" r="1.5"/>
      <circle cx="720" cy="15" r="1.5"/>
      <circle cx="170" cy="115" r="1.5"/>
      <circle cx="270" cy="145" r="1.5"/>
      <circle cx="370" cy="175" r="1.5"/>
      <circle cx="470" cy="125" r="1.5"/>
      <circle cx="570" cy="155" r="1.5"/>
      <circle cx="670" cy="105" r="1.5"/>
      <circle cx="770" cy="135" r="1.5"/>
      <circle cx="145" cy="195" r="1.5"/>
      <circle cx="245" cy="225" r="1.5"/>
      <circle cx="345" cy="255" r="1.5"/>
      <circle cx="445" cy="205" r="1.5"/>
      <circle cx="545" cy="235" r="1.5"/>
      <circle cx="645" cy="265" r="1.5"/>
      <circle cx="745" cy="215" r="1.5"/>
      <circle cx="195" cy="295" r="1.5"/>
      <circle cx="295" cy="325" r="1.5"/>
      <circle cx="395" cy="355" r="1.5"/>
      <circle cx="495" cy="305" r="1.5"/>
      <circle cx="595" cy="335" r="1.5"/>
      <circle cx="695" cy="365" r="1.5"/>
      <circle cx="95" cy="345" r="1.5"/>
      <circle cx="195" cy="375" r="1.5"/>
      <circle cx="295" cy="405" r="1.5"/>
      <circle cx="395" cy="435" r="1.5"/>
      <circle cx="495" cy="385" r="1.5"/>
      <circle cx="595" cy="415" r="1.5"/>
      <circle cx="695" cy="445" r="1.5"/>
      <circle cx="145" cy="425" r="1.5"/>
      <circle cx="245" cy="455" r="1.5"/>
      <circle cx="345" cy="485" r="1.5"/>
      <circle cx="445" cy="515" r="1.5"/>
      <circle cx="545" cy="465" r="1.5"/>
      <circle cx="645" cy="495" r="1.5"/>
      <circle cx="745" cy="525" r="1.5"/>
      <circle cx="95" cy="505" r="1.5"/>
      <circle cx="195" cy="535" r="1.5"/>
      <circle cx="295" cy="565" r="1.5"/>
      <circle cx="395" cy="515" r="1.5"/>
      <circle cx="495" cy="545" r="1.5"/>
      <circle cx="595" cy="575" r="1.5"/>
      <circle cx="695" cy="525" r="1.5"/>
    </g>
    
    <!-- 大星星 -->
    <g opacity="0.9">
      <circle cx="85" cy="40" r="2"/>
      <circle cx="185" cy="70" r="2"/>
      <circle cx="285" cy="20" r="2"/>
      <circle cx="385" cy="80" r="2"/>
      <circle cx="485" cy="30" r="2"/>
      <circle cx="585" cy="60" r="2"/>
      <circle cx="685" cy="10" r="2"/>
      <circle cx="135" cy="110" r="2"/>
      <circle cx="235" cy="140" r="2"/>
      <circle cx="335" cy="170" r="2"/>
      <circle cx="435" cy="120" r="2"/>
      <circle cx="535" cy="150" r="2"/>
      <circle cx="635" cy="100" r="2"/>
      <circle cx="735" cy="130" r="2"/>
      <circle cx="110" cy="190" r="2"/>
      <circle cx="210" cy="220" r="2"/>
      <circle cx="310" cy="250" r="2"/>
      <circle cx="410" cy="200" r="2"/>
      <circle cx="510" cy="230" r="2"/>
      <circle cx="610" cy="260" r="2"/>
      <circle cx="710" cy="210" r="2"/>
      <circle cx="160" cy="290" r="2"/>
      <circle cx="260" cy="320" r="2"/>
      <circle cx="360" cy="350" r="2"/>
      <circle cx="460" cy="300" r="2"/>
      <circle cx="560" cy="330" r="2"/>
      <circle cx="660" cy="360" r="2"/>
      <circle cx="60" cy="340" r="2"/>
      <circle cx="160" cy="370" r="2"/>
      <circle cx="260" cy="400" r="2"/>
      <circle cx="360" cy="430" r="2"/>
      <circle cx="460" cy="380" r="2"/>
      <circle cx="560" cy="410" r="2"/>
      <circle cx="660" cy="440" r="2"/>
      <circle cx="110" cy="420" r="2"/>
      <circle cx="210" cy="450" r="2"/>
      <circle cx="310" cy="480" r="2"/>
      <circle cx="410" cy="510" r="2"/>
      <circle cx="510" cy="460" r="2"/>
      <circle cx="610" cy="490" r="2"/>
      <circle cx="710" cy="520" r="2"/>
      <circle cx="60" cy="500" r="2"/>
      <circle cx="160" cy="530" r="2"/>
      <circle cx="260" cy="560" r="2"/>
      <circle cx="360" cy="510" r="2"/>
      <circle cx="460" cy="540" r="2"/>
      <circle cx="560" cy="570" r="2"/>
      <circle cx="660" cy="520" r="2"/>
    </g>
    
    <!-- 閃爍星星 -->
    <g>
      <circle cx="400" cy="300" r="3">
        <animate attributeName="opacity" values="1;0.3;1" dur="3s" repeatCount="indefinite" />
      </circle>
      <circle cx="200" cy="100" r="2.5">
        <animate attributeName="opacity" values="1;0.4;1" dur="4s" repeatCount="indefinite" />
      </circle>
      <circle cx="600" cy="200" r="2.5">
        <animate attributeName="opacity" values="1;0.4;1" dur="5s" repeatCount="indefinite" />
      </circle>
      <circle cx="300" cy="500" r="2.5">
        <animate attributeName="opacity" values="1;0.4;1" dur="6s" repeatCount="indefinite" />
      </circle>
      <circle cx="700" cy="400" r="2.5">
        <animate attributeName="opacity" values="1;0.4;1" dur="7s" repeatCount="indefinite" />
      </circle>
    </g>
  </g>
  
  <!-- 遠處星雲 -->
  <g opacity="0.2">
    <ellipse cx="200" cy="150" rx="100" ry="60" fill="#5050ff"/>
    <ellipse cx="600" cy="450" rx="120" ry="80" fill="#ff5050"/>
  </g>
</svg>